<?xml version="1.0" encoding="UTF-8" standalone="no"?><svg xmlns="http://www.w3.org/2000/svg" xmlns:xlink="http://www.w3.org/1999/xlink" contentScriptType="application/ecmascript" contentStyleType="text/css" height="413px" preserveAspectRatio="none" style="width:783px;height:413px;" version="1.1" viewBox="0 0 783 413" width="783px" zoomAndPan="magnify"><defs><filter height="300%" id="fdso4ix2hk0kw" width="300%" x="-1" y="-1"><feGaussianBlur result="blurOut" stdDeviation="2.0"/><feColorMatrix in="blurOut" result="blurOut2" type="matrix" values="0 0 0 0 0 0 0 0 0 0 0 0 0 0 0 0 0 0 .4 0"/><feOffset dx="4.0" dy="4.0" in="blurOut2" result="blurOut3"/><feBlend in="SourceGraphic" in2="blurOut3" mode="normal"/></filter></defs><g><!--cluster policymodels.server--><polygon fill="#FFFFFF" filter="url(#fdso4ix2hk0kw)" points="14,16,163,16,170,38.4883,776,38.4883,776,298,14,298,14,16" style="stroke: #000000; stroke-width: 2.0;"/><line style="stroke: #000000; stroke-width: 2.0;" x1="14" x2="170" y1="38.4883" y2="38.4883"/><text fill="#000000" font-family="sans-serif" font-size="14" font-weight="bold" lengthAdjust="spacingAndGlyphs" textLength="143" x="18" y="31.5352">policymodels.server</text><!--cluster policymodels.datatags--><polygon fill="#FFFFFF" filter="url(#fdso4ix2hk0kw)" points="288,323,455,323,462,345.4883,465,345.4883,465,406,288,406,288,323" style="stroke: #000000; stroke-width: 2.0;"/><line style="stroke: #000000; stroke-width: 2.0;" x1="288" x2="462" y1="345.4883" y2="345.4883"/><text fill="#000000" font-family="sans-serif" font-size="14" font-weight="bold" lengthAdjust="spacingAndGlyphs" textLength="161" x="292" y="338.5352">policymodels.datatags</text><!--class VersionedPolicyModel--><rect fill="#FEFECE" filter="url(#fdso4ix2hk0kw)" height="73.9102" id="VersionedPolicyModel" style="stroke: #A80036; stroke-width: 1.5;" width="195" x="572.5" y="56"/><ellipse cx="595.6" cy="72" fill="#ADD1B2" rx="11" ry="11" style="stroke: #A80036; stroke-width: 1.0;"/><path d="M598.5731,77.6431 Q597.9921,77.9419 597.3529,78.0913 Q596.7138,78.2407 596.0082,78.2407 Q593.5014,78.2407 592.1815,76.5889 Q590.8617,74.937 590.8617,71.8159 Q590.8617,68.6865 592.1815,67.0347 Q593.5014,65.3828 596.0082,65.3828 Q596.7138,65.3828 597.3612,65.5322 Q598.0087,65.6816 598.5731,65.9805 L598.5731,68.7031 Q597.9423,68.1221 597.3488,67.8523 Q596.7553,67.5825 596.1244,67.5825 Q594.7797,67.5825 594.0949,68.6492 Q593.4101,69.7158 593.4101,71.8159 Q593.4101,73.9077 594.0949,74.9744 Q594.7797,76.041 596.1244,76.041 Q596.7553,76.041 597.3488,75.7712 Q597.9423,75.5015 598.5731,74.9204 Z "/><text fill="#000000" font-family="sans-serif" font-size="12" lengthAdjust="spacingAndGlyphs" textLength="125" x="611.4" y="76.5352">VersionedPolicyModel</text><rect fill="#FFFFFF" height="16.1328" style="stroke: #000000; stroke-width: 1.0; stroke-dasharray: 2.0,2.0;" width="18" x="752.5" y="53"/><text fill="#000000" font-family="sans-serif" font-size="12" font-style="italic" lengthAdjust="spacingAndGlyphs" textLength="16" x="753.5" y="65.6016">DB</text><line style="stroke: #A80036; stroke-width: 1.5;" x1="573.5" x2="766.5" y1="88" y2="88"/><text fill="#000000" font-family="sans-serif" font-size="11" lengthAdjust="spacingAndGlyphs" textLength="45" x="578.5" y="102.6348">id:String</text><text fill="#000000" font-family="sans-serif" font-size="11" lengthAdjust="spacingAndGlyphs" textLength="183" x="578.5" y="115.5898">versions: Seq[PolicyModelVersion]</text><line style="stroke: #A80036; stroke-width: 1.5;" x1="573.5" x2="766.5" y1="121.9102" y2="121.9102"/><!--class PolicyModelVersion--><rect fill="#FEFECE" filter="url(#fdso4ix2hk0kw)" height="86.8652" id="PolicyModelVersion" style="stroke: #A80036; stroke-width: 1.5;" width="262" x="245" y="203"/><ellipse cx="306.75" cy="219" fill="#ADD1B2" rx="11" ry="11" style="stroke: #A80036; stroke-width: 1.0;"/><path d="M309.7231,224.6431 Q309.1421,224.9419 308.5029,225.0913 Q307.8638,225.2407 307.1582,225.2407 Q304.6514,225.2407 303.3315,223.5889 Q302.0117,221.937 302.0117,218.8159 Q302.0117,215.6865 303.3315,214.0347 Q304.6514,212.3828 307.1582,212.3828 Q307.8638,212.3828 308.5112,212.5322 Q309.1587,212.6816 309.7231,212.9805 L309.7231,215.7031 Q309.0923,215.1221 308.4988,214.8523 Q307.9053,214.5825 307.2744,214.5825 Q305.9297,214.5825 305.2449,215.6492 Q304.5601,216.7158 304.5601,218.8159 Q304.5601,220.9077 305.2449,221.9744 Q305.9297,223.041 307.2744,223.041 Q307.9053,223.041 308.4988,222.7712 Q309.0923,222.5015 309.7231,221.9204 Z "/><text fill="#000000" font-family="sans-serif" font-size="12" lengthAdjust="spacingAndGlyphs" textLength="110" x="327.25" y="223.5352">PolicyModelVersion</text><rect fill="#FFFFFF" height="16.1328" style="stroke: #000000; stroke-width: 1.0; stroke-dasharray: 2.0,2.0;" width="18" x="492" y="200"/><text fill="#000000" font-family="sans-serif" font-size="12" font-style="italic" lengthAdjust="spacingAndGlyphs" textLength="16" x="493" y="212.6016">DB</text><line style="stroke: #A80036; stroke-width: 1.5;" x1="246" x2="506" y1="235" y2="235"/><text fill="#000000" font-family="sans-serif" font-size="11" lengthAdjust="spacingAndGlyphs" textLength="130" x="251" y="249.6348">policyModel:PolicyModel</text><text fill="#000000" font-family="sans-serif" font-size="11" lengthAdjust="spacingAndGlyphs" textLength="193" x="251" y="262.5898">publishStatus: {None, ByLink, Public}</text><text fill="#000000" font-family="sans-serif" font-size="11" lengthAdjust="spacingAndGlyphs" textLength="250" x="251" y="275.5449">isOpenForComments: {None, LoggedIn, Public}</text><line style="stroke: #A80036; stroke-width: 1.5;" x1="246" x2="506" y1="281.8652" y2="281.8652"/><!--class VersionComment--><rect fill="#FEFECE" filter="url(#fdso4ix2hk0kw)" height="99.8203" id="VersionComment" style="stroke: #A80036; stroke-width: 1.5;" width="323" x="214.5" y="43"/><ellipse cx="312.75" cy="59" fill="#ADD1B2" rx="11" ry="11" style="stroke: #A80036; stroke-width: 1.0;"/><path d="M315.7231,64.6431 Q315.1421,64.9419 314.5029,65.0913 Q313.8638,65.2407 313.1582,65.2407 Q310.6514,65.2407 309.3315,63.5889 Q308.0117,61.937 308.0117,58.8159 Q308.0117,55.6865 309.3315,54.0347 Q310.6514,52.3828 313.1582,52.3828 Q313.8638,52.3828 314.5112,52.5322 Q315.1587,52.6816 315.7231,52.9805 L315.7231,55.7031 Q315.0923,55.1221 314.4988,54.8523 Q313.9053,54.5825 313.2744,54.5825 Q311.9297,54.5825 311.2449,55.6492 Q310.5601,56.7158 310.5601,58.8159 Q310.5601,60.9077 311.2449,61.9744 Q311.9297,63.041 313.2744,63.041 Q313.9053,63.041 314.4988,62.7712 Q315.0923,62.5015 315.7231,61.9204 Z "/><text fill="#000000" font-family="sans-serif" font-size="12" lengthAdjust="spacingAndGlyphs" textLength="98" x="333.25" y="63.5352">VersionComment</text><rect fill="#FFFFFF" height="16.1328" style="stroke: #000000; stroke-width: 1.0; stroke-dasharray: 2.0,2.0;" width="18" x="522.5" y="40"/><text fill="#000000" font-family="sans-serif" font-size="12" font-style="italic" lengthAdjust="spacingAndGlyphs" textLength="16" x="523.5" y="52.6016">DB</text><line style="stroke: #A80036; stroke-width: 1.5;" x1="215.5" x2="536.5" y1="75" y2="75"/><text fill="#000000" font-family="sans-serif" font-size="11" lengthAdjust="spacingAndGlyphs" textLength="85" x="220.5" y="89.6348">comment:String</text><text fill="#000000" font-family="sans-serif" font-size="11" lengthAdjust="spacingAndGlyphs" textLength="99" x="220.5" y="102.5898">commenter: String</text><text fill="#000000" font-family="sans-serif" font-size="11" lengthAdjust="spacingAndGlyphs" textLength="311" x="220.5" y="115.5449">targetType: {DecisionGraphMetadata, Question, TagSpace}</text><text fill="#000000" font-family="sans-serif" font-size="11" lengthAdjust="spacingAndGlyphs" textLength="80" x="220.5" y="128.5">targetId: String</text><line style="stroke: #A80036; stroke-width: 1.5;" x1="215.5" x2="536.5" y1="134.8203" y2="134.8203"/><!--class PolicyModelVersionKit--><rect fill="#FEFECE" filter="url(#fdso4ix2hk0kw)" height="86.8652" id="PolicyModelVersionKit" style="stroke: #A80036; stroke-width: 1.5;" width="157" x="22.5" y="49.5"/><ellipse cx="37.5" cy="65.5" fill="#ADD1B2" rx="11" ry="11" style="stroke: #A80036; stroke-width: 1.0;"/><path d="M40.4731,71.1431 Q39.8921,71.4419 39.2529,71.5913 Q38.6138,71.7407 37.9082,71.7407 Q35.4014,71.7407 34.0815,70.0889 Q32.7617,68.437 32.7617,65.3159 Q32.7617,62.1865 34.0815,60.5347 Q35.4014,58.8828 37.9082,58.8828 Q38.6138,58.8828 39.2612,59.0322 Q39.9087,59.1816 40.4731,59.4805 L40.4731,62.2031 Q39.8423,61.6221 39.2488,61.3523 Q38.6553,61.0825 38.0244,61.0825 Q36.6797,61.0825 35.9949,62.1492 Q35.3101,63.2158 35.3101,65.3159 Q35.3101,67.4077 35.9949,68.4744 Q36.6797,69.541 38.0244,69.541 Q38.6553,69.541 39.2488,69.2712 Q39.8423,69.0015 40.4731,68.4204 Z "/><text fill="#000000" font-family="sans-serif" font-size="12" lengthAdjust="spacingAndGlyphs" textLength="125" x="51.5" y="70.0352">PolicyModelVersionKit</text><line style="stroke: #A80036; stroke-width: 1.5;" x1="23.5" x2="178.5" y1="81.5" y2="81.5"/><text fill="#000000" font-family="sans-serif" font-size="11" lengthAdjust="spacingAndGlyphs" textLength="45" x="28.5" y="96.1348">id:String</text><text fill="#000000" font-family="sans-serif" font-size="11" lengthAdjust="spacingAndGlyphs" textLength="74" x="28.5" y="109.0898">modelVersion</text><text fill="#000000" font-family="sans-serif" font-size="11" lengthAdjust="spacingAndGlyphs" textLength="49" x="28.5" y="122.0449">serializer</text><line style="stroke: #A80036; stroke-width: 1.5;" x1="23.5" x2="178.5" y1="128.3652" y2="128.3652"/><!--class PolicyModel--><rect fill="#FEFECE" filter="url(#fdso4ix2hk0kw)" height="48" id="PolicyModel" style="stroke: #A80036; stroke-width: 1.5;" width="99" x="326.5" y="350"/><ellipse cx="341.5" cy="366" fill="#ADD1B2" rx="11" ry="11" style="stroke: #A80036; stroke-width: 1.0;"/><path d="M344.4731,371.6431 Q343.8921,371.9419 343.2529,372.0913 Q342.6138,372.2407 341.9082,372.2407 Q339.4014,372.2407 338.0815,370.5889 Q336.7617,368.937 336.7617,365.8159 Q336.7617,362.6865 338.0815,361.0347 Q339.4014,359.3828 341.9082,359.3828 Q342.6138,359.3828 343.2612,359.5322 Q343.9087,359.6816 344.4731,359.9805 L344.4731,362.7031 Q343.8423,362.1221 343.2488,361.8523 Q342.6553,361.5825 342.0244,361.5825 Q340.6797,361.5825 339.9949,362.6492 Q339.3101,363.7158 339.3101,365.8159 Q339.3101,367.9077 339.9949,368.9744 Q340.6797,370.041 342.0244,370.041 Q342.6553,370.041 343.2488,369.7712 Q343.8423,369.5015 344.4731,368.9204 Z "/><text fill="#000000" font-family="sans-serif" font-size="12" lengthAdjust="spacingAndGlyphs" textLength="67" x="355.5" y="370.5352">PolicyModel</text><line style="stroke: #A80036; stroke-width: 1.5;" x1="327.5" x2="424.5" y1="382" y2="382"/><line style="stroke: #A80036; stroke-width: 1.5;" x1="327.5" x2="424.5" y1="390" y2="390"/><!--link VersionedPolicyModel to PolicyModelVersion--><path d="M587.257,136.2008 C551.2446,155.0032 508.8263,177.1502 471.4851,196.6464 " fill="none" id="VersionedPolicyModel-PolicyModelVersion" style="stroke: #A80036; stroke-width: 1.0;"/><polygon fill="#A80036" points="459.5542,202.8756,469.3835,202.2559,463.9864,200.5614,465.6809,195.1643,459.5542,202.8756" style="stroke: #A80036; stroke-width: 1.0;"/><line style="stroke: #A80036; stroke-width: 1.0;" x1="463.9864" x2="471.0781" y1="200.5614" y2="196.8589"/><polygon fill="#A80036" points="598.8308,130.1581,591.6608,129.3892,588.1934,135.712,595.3634,136.4808,598.8308,130.1581" style="stroke: #A80036; stroke-width: 1.0;"/><text fill="#000000" font-family="sans-serif" font-size="13" lengthAdjust="spacingAndGlyphs" textLength="8" x="577.9111" y="150.4365">1</text><text fill="#000000" font-family="sans-serif" font-size="13" lengthAdjust="spacingAndGlyphs" textLength="22" x="449.1175" y="192.3315">0..*</text><!--link VersionComment to PolicyModelVersion--><path d="M376,156.6591 C376,167.5836 376,178.8728 376,189.6057 " fill="none" id="VersionComment-PolicyModelVersion" style="stroke: #A80036; stroke-width: 1.0;"/><polygon fill="#A80036" points="376,202.8339,380,196.8339,376,190.8339,372,196.8339,376,202.8339" style="stroke: #A80036; stroke-width: 1.0;"/><polygon fill="#A80036" points="376,143.2616,372,149.2616,376,155.2616,380,149.2616,376,143.2616" style="stroke: #A80036; stroke-width: 1.0;"/><text fill="#000000" font-family="sans-serif" font-size="13" lengthAdjust="spacingAndGlyphs" textLength="22" x="352.5906" y="163.2621">0..*</text><text fill="#000000" font-family="sans-serif" font-size="13" lengthAdjust="spacingAndGlyphs" textLength="8" x="367.3625" y="192.2831">1</text><!--link PolicyModelVersionKit to PolicyModelVersion--><path d="M190.5967,143.0113 C221.2414,160.1166 255.514,179.2469 286.1766,196.3622 " fill="none" id="PolicyModelVersionKit-PolicyModelVersion" style="stroke: #A80036; stroke-width: 1.0;"/><polygon fill="#A80036" points="297.7364,202.8147,291.8273,194.9354,293.3705,200.3777,287.9282,201.9209,297.7364,202.8147" style="stroke: #A80036; stroke-width: 1.0;"/><line style="stroke: #A80036; stroke-width: 1.0;" x1="293.3705" x2="286.3851" y1="200.3777" y2="196.4785"/><polygon fill="#A80036" points="179.0684,136.5763,182.3579,142.9934,189.5466,142.425,186.2571,136.0079,179.0684,136.5763" style="stroke: #A80036; stroke-width: 1.0;"/><text fill="#000000" font-family="sans-serif" font-size="13" lengthAdjust="spacingAndGlyphs" textLength="8" x="276.6256" y="192.2609">1</text><!--link PolicyModelVersion to PolicyModel--><path d="M376,303.0246 C376,314.494 376,326.2794 376,336.8701 " fill="none" id="PolicyModelVersion-PolicyModel" style="stroke: #A80036; stroke-width: 1.0;"/><polygon fill="#A80036" points="376,349.9773,380,340.9773,376,344.9773,372,340.9773,376,349.9773" style="stroke: #A80036; stroke-width: 1.0;"/><line style="stroke: #A80036; stroke-width: 1.0;" x1="376" x2="376.0001" y1="344.9773" y2="336.9773"/><polygon fill="#A80036" points="376,290.0217,372,296.0217,376,302.0217,380,296.0217,376,290.0217" style="stroke: #A80036; stroke-width: 1.0;"/><text fill="#000000" font-family="sans-serif" font-size="13" lengthAdjust="spacingAndGlyphs" textLength="8" x="366.925" y="339.1157">1</text><!--
@startuml

package policymodels.server {
  class VersionedPolicyModel <DB> {
    id:String
    versions: Seq[PolicyModelVersion]
  }

  class PolicyModelVersion <DB> {
    policyModel:PolicyModel
    publishStatus: {None, ByLink, Public}
    isOpenForComments: {None, LoggedIn, Public}
  }

  class VersionComment <DB> {
    comment:String
    commenter: String
    targetType: {DecisionGraphMetadata, Question, TagSpace}
    targetId: String
  }

  class PolicyModelVersionKit {
    id:String
    modelVersion
    serializer
  }

  VersionedPolicyModel "1" *- -> "0..*" PolicyModelVersion
  VersionComment "0..*" *- -* "1" PolicyModelVersion
  PolicyModelVersionKit *- -> "1" PolicyModelVersion
}

package policymodels.datatags {
  class PolicyModel
}

PolicyModelVersion  *- -> "1" PolicyModel

@enduml

PlantUML version 1.2017.13(Wed May 10 19:52:33 IDT 2017)
(GPL source distribution)
Java Runtime: Java(TM) SE Runtime Environment
JVM: Java HotSpot(TM) 64-Bit Server VM
Java Version: 1.8.0_111-b14
Operating System: Mac OS X
OS Version: 10.12.5
Default Encoding: UTF-8
Language: en
Country: US
--></g></svg>