<?xml version="1.0" encoding="UTF-8" standalone="no"?><svg xmlns="http://www.w3.org/2000/svg" xmlns:xlink="http://www.w3.org/1999/xlink" contentScriptType="application/ecmascript" contentStyleType="text/css" height="599px" preserveAspectRatio="none" style="width:845px;height:599px;" version="1.1" viewBox="0 0 845 599" width="845px" zoomAndPan="magnify"><defs><filter height="300%" id="f5ex98ep546f7" width="300%" x="-1" y="-1"><feGaussianBlur result="blurOut" stdDeviation="2.0"/><feColorMatrix in="blurOut" result="blurOut2" type="matrix" values="0 0 0 0 0 0 0 0 0 0 0 0 0 0 0 0 0 0 .4 0"/><feOffset dx="4.0" dy="4.0" in="blurOut2" result="blurOut3"/><feBlend in="SourceGraphic" in2="blurOut3" mode="normal"/></filter></defs><g><!--cluster policymodels.server--><polygon fill="#FFFFFF" filter="url(#f5ex98ep546f7)" points="14,16,163,16,170,38.4883,838,38.4883,838,484,14,484,14,16" style="stroke: #000000; stroke-width: 2.0;"/><line style="stroke: #000000; stroke-width: 2.0;" x1="14" x2="170" y1="38.4883" y2="38.4883"/><text fill="#000000" font-family="sans-serif" font-size="14" font-weight="bold" lengthAdjust="spacingAndGlyphs" textLength="143" x="18" y="31.5352">policymodels.server</text><!--cluster policymodels.datatags--><polygon fill="#FFFFFF" filter="url(#f5ex98ep546f7)" points="463,509,630,509,637,531.4883,753,531.4883,753,592,463,592,463,509" style="stroke: #000000; stroke-width: 2.0;"/><line style="stroke: #000000; stroke-width: 2.0;" x1="463" x2="637" y1="531.4883" y2="531.4883"/><text fill="#000000" font-family="sans-serif" font-size="14" font-weight="bold" lengthAdjust="spacingAndGlyphs" textLength="161" x="467" y="524.5352">policymodels.datatags</text><!--class PolicyModelStore--><rect fill="#FEFECE" filter="url(#f5ex98ep546f7)" height="112.7754" id="PolicyModelStore" style="stroke: #A80036; stroke-width: 1.5;" width="220" x="368" y="43"/><ellipse cx="425.75" cy="59" fill="#ADD1B2" rx="11" ry="11" style="stroke: #A80036; stroke-width: 1.0;"/><path d="M428.7231,64.6431 Q428.1421,64.9419 427.5029,65.0913 Q426.8638,65.2407 426.1582,65.2407 Q423.6514,65.2407 422.3315,63.5889 Q421.0117,61.937 421.0117,58.8159 Q421.0117,55.6865 422.3315,54.0347 Q423.6514,52.3828 426.1582,52.3828 Q426.8638,52.3828 427.5112,52.5322 Q428.1587,52.6816 428.7231,52.9805 L428.7231,55.7031 Q428.0923,55.1221 427.4988,54.8523 Q426.9053,54.5825 426.2744,54.5825 Q424.9297,54.5825 424.2449,55.6492 Q423.5601,56.7158 423.5601,58.8159 Q423.5601,60.9077 424.2449,61.9744 Q424.9297,63.041 426.2744,63.041 Q426.9053,63.041 427.4988,62.7712 Q428.0923,62.5015 428.7231,61.9204 Z "/><text fill="#000000" font-family="sans-serif" font-size="12" lengthAdjust="spacingAndGlyphs" textLength="96" x="446.25" y="63.5352">PolicyModelStore</text><line style="stroke: #A80036; stroke-width: 1.5;" x1="369" x2="587" y1="75" y2="75"/><text fill="#000000" font-family="sans-serif" font-size="11" lengthAdjust="spacingAndGlyphs" textLength="208" x="374" y="89.6348">models: Map[id, VersionedPolicyModel]</text><line style="stroke: #A80036; stroke-width: 1.5;" x1="369" x2="587" y1="95.9551" y2="95.9551"/><text fill="#000000" font-family="sans-serif" font-size="11" lengthAdjust="spacingAndGlyphs" textLength="45" x="374" y="110.5898">loadAll()</text><text fill="#000000" font-family="sans-serif" font-size="11" lengthAdjust="spacingAndGlyphs" textLength="52" x="374" y="123.5449">reload(id)</text><text fill="#000000" font-family="sans-serif" font-size="11" lengthAdjust="spacingAndGlyphs" textLength="174" x="374" y="136.5">C/R/U/D(VersionedPolicyModel)</text><text fill="#000000" font-family="sans-serif" font-size="11" lengthAdjust="spacingAndGlyphs" textLength="200" x="374" y="149.4551">C/R/U/D(vpmId, PolicyModelVersion)</text><!--class VersionedPolicyModel--><rect fill="#FEFECE" filter="url(#f5ex98ep546f7)" height="73.9102" id="VersionedPolicyModel" style="stroke: #A80036; stroke-width: 1.5;" width="195" x="380.5" y="229"/><ellipse cx="403.6" cy="245" fill="#ADD1B2" rx="11" ry="11" style="stroke: #A80036; stroke-width: 1.0;"/><path d="M406.5731,250.6431 Q405.9921,250.9419 405.3529,251.0913 Q404.7138,251.2407 404.0082,251.2407 Q401.5014,251.2407 400.1815,249.5889 Q398.8617,247.937 398.8617,244.8159 Q398.8617,241.6865 400.1815,240.0347 Q401.5014,238.3828 404.0082,238.3828 Q404.7138,238.3828 405.3612,238.5322 Q406.0087,238.6816 406.5731,238.9805 L406.5731,241.7031 Q405.9423,241.1221 405.3488,240.8523 Q404.7553,240.5825 404.1244,240.5825 Q402.7797,240.5825 402.0949,241.6492 Q401.4101,242.7158 401.4101,244.8159 Q401.4101,246.9077 402.0949,247.9744 Q402.7797,249.041 404.1244,249.041 Q404.7553,249.041 405.3488,248.7712 Q405.9423,248.5015 406.5731,247.9204 Z "/><text fill="#000000" font-family="sans-serif" font-size="12" lengthAdjust="spacingAndGlyphs" textLength="125" x="419.4" y="249.5352">VersionedPolicyModel</text><rect fill="#FFFFFF" height="16.1328" style="stroke: #000000; stroke-width: 1.0; stroke-dasharray: 2.0,2.0;" width="18" x="560.5" y="226"/><text fill="#000000" font-family="sans-serif" font-size="12" font-style="italic" lengthAdjust="spacingAndGlyphs" textLength="16" x="561.5" y="238.6016">DB</text><line style="stroke: #A80036; stroke-width: 1.5;" x1="381.5" x2="574.5" y1="261" y2="261"/><text fill="#000000" font-family="sans-serif" font-size="11" lengthAdjust="spacingAndGlyphs" textLength="45" x="386.5" y="275.6348">id:String</text><text fill="#000000" font-family="sans-serif" font-size="11" lengthAdjust="spacingAndGlyphs" textLength="183" x="386.5" y="288.5898">versions: Seq[PolicyModelVersion]</text><line style="stroke: #A80036; stroke-width: 1.5;" x1="381.5" x2="574.5" y1="294.9102" y2="294.9102"/><!--class PolicyModelVersion--><rect fill="#FEFECE" filter="url(#f5ex98ep546f7)" height="99.8203" id="PolicyModelVersion" style="stroke: #A80036; stroke-width: 1.5;" width="262" x="361" y="376"/><ellipse cx="422.75" cy="392" fill="#ADD1B2" rx="11" ry="11" style="stroke: #A80036; stroke-width: 1.0;"/><path d="M425.7231,397.6431 Q425.1421,397.9419 424.5029,398.0913 Q423.8638,398.2407 423.1582,398.2407 Q420.6514,398.2407 419.3315,396.5889 Q418.0117,394.937 418.0117,391.8159 Q418.0117,388.6865 419.3315,387.0347 Q420.6514,385.3828 423.1582,385.3828 Q423.8638,385.3828 424.5112,385.5322 Q425.1587,385.6816 425.7231,385.9805 L425.7231,388.7031 Q425.0923,388.1221 424.4988,387.8523 Q423.9053,387.5825 423.2744,387.5825 Q421.9297,387.5825 421.2449,388.6492 Q420.5601,389.7158 420.5601,391.8159 Q420.5601,393.9077 421.2449,394.9744 Q421.9297,396.041 423.2744,396.041 Q423.9053,396.041 424.4988,395.7712 Q425.0923,395.5015 425.7231,394.9204 Z "/><text fill="#000000" font-family="sans-serif" font-size="12" lengthAdjust="spacingAndGlyphs" textLength="110" x="443.25" y="396.5352">PolicyModelVersion</text><rect fill="#FFFFFF" height="16.1328" style="stroke: #000000; stroke-width: 1.0; stroke-dasharray: 2.0,2.0;" width="18" x="608" y="373"/><text fill="#000000" font-family="sans-serif" font-size="12" font-style="italic" lengthAdjust="spacingAndGlyphs" textLength="16" x="609" y="385.6016">DB</text><line style="stroke: #A80036; stroke-width: 1.5;" x1="362" x2="622" y1="408" y2="408"/><text fill="#000000" font-family="sans-serif" font-size="11" lengthAdjust="spacingAndGlyphs" textLength="10" x="367" y="422.6348">id</text><text fill="#000000" font-family="sans-serif" font-size="11" lengthAdjust="spacingAndGlyphs" textLength="130" x="367" y="435.5898">policyModel:PolicyModel</text><text fill="#000000" font-family="sans-serif" font-size="11" lengthAdjust="spacingAndGlyphs" textLength="193" x="367" y="448.5449">publishStatus: {None, ByLink, Public}</text><text fill="#000000" font-family="sans-serif" font-size="11" lengthAdjust="spacingAndGlyphs" textLength="250" x="367" y="461.5">isOpenForComments: {None, LoggedIn, Public}</text><line style="stroke: #A80036; stroke-width: 1.5;" x1="362" x2="622" y1="467.8203" y2="467.8203"/><!--class VersionComment--><rect fill="#FEFECE" filter="url(#f5ex98ep546f7)" height="99.8203" id="VersionComment" style="stroke: #A80036; stroke-width: 1.5;" width="323" x="22.5" y="216"/><ellipse cx="120.75" cy="232" fill="#ADD1B2" rx="11" ry="11" style="stroke: #A80036; stroke-width: 1.0;"/><path d="M123.7231,237.6431 Q123.1421,237.9419 122.5029,238.0913 Q121.8638,238.2407 121.1582,238.2407 Q118.6514,238.2407 117.3315,236.5889 Q116.0117,234.937 116.0117,231.8159 Q116.0117,228.6865 117.3315,227.0347 Q118.6514,225.3828 121.1582,225.3828 Q121.8638,225.3828 122.5112,225.5322 Q123.1587,225.6816 123.7231,225.9805 L123.7231,228.7031 Q123.0923,228.1221 122.4988,227.8523 Q121.9053,227.5825 121.2744,227.5825 Q119.9297,227.5825 119.2449,228.6492 Q118.5601,229.7158 118.5601,231.8159 Q118.5601,233.9077 119.2449,234.9744 Q119.9297,236.041 121.2744,236.041 Q121.9053,236.041 122.4988,235.7712 Q123.0923,235.5015 123.7231,234.9204 Z "/><text fill="#000000" font-family="sans-serif" font-size="12" lengthAdjust="spacingAndGlyphs" textLength="98" x="141.25" y="236.5352">VersionComment</text><rect fill="#FFFFFF" height="16.1328" style="stroke: #000000; stroke-width: 1.0; stroke-dasharray: 2.0,2.0;" width="18" x="330.5" y="213"/><text fill="#000000" font-family="sans-serif" font-size="12" font-style="italic" lengthAdjust="spacingAndGlyphs" textLength="16" x="331.5" y="225.6016">DB</text><line style="stroke: #A80036; stroke-width: 1.5;" x1="23.5" x2="344.5" y1="248" y2="248"/><text fill="#000000" font-family="sans-serif" font-size="11" lengthAdjust="spacingAndGlyphs" textLength="85" x="28.5" y="262.6348">comment:String</text><text fill="#000000" font-family="sans-serif" font-size="11" lengthAdjust="spacingAndGlyphs" textLength="99" x="28.5" y="275.5898">commenter: String</text><text fill="#000000" font-family="sans-serif" font-size="11" lengthAdjust="spacingAndGlyphs" textLength="311" x="28.5" y="288.5449">targetType: {DecisionGraphMetadata, Question, TagSpace}</text><text fill="#000000" font-family="sans-serif" font-size="11" lengthAdjust="spacingAndGlyphs" textLength="80" x="28.5" y="301.5">targetId: String</text><line style="stroke: #A80036; stroke-width: 1.5;" x1="23.5" x2="344.5" y1="307.8203" y2="307.8203"/><!--class PolicyModelVersionKit--><rect fill="#FEFECE" filter="url(#f5ex98ep546f7)" height="99.8203" id="PolicyModelVersionKit" style="stroke: #A80036; stroke-width: 1.5;" width="219" x="610.5" y="216"/><ellipse cx="653.4" cy="232" fill="#ADD1B2" rx="11" ry="11" style="stroke: #A80036; stroke-width: 1.0;"/><path d="M656.3731,237.6431 Q655.7921,237.9419 655.1529,238.0913 Q654.5138,238.2407 653.8082,238.2407 Q651.3014,238.2407 649.9815,236.5889 Q648.6617,234.937 648.6617,231.8159 Q648.6617,228.6865 649.9815,227.0347 Q651.3014,225.3828 653.8082,225.3828 Q654.5138,225.3828 655.1612,225.5322 Q655.8087,225.6816 656.3731,225.9805 L656.3731,228.7031 Q655.7423,228.1221 655.1488,227.8523 Q654.5553,227.5825 653.9244,227.5825 Q652.5797,227.5825 651.8949,228.6492 Q651.2101,229.7158 651.2101,231.8159 Q651.2101,233.9077 651.8949,234.9744 Q652.5797,236.041 653.9244,236.041 Q654.5553,236.041 655.1488,235.7712 Q655.7423,235.5015 656.3731,234.9204 Z "/><text fill="#000000" font-family="sans-serif" font-size="12" lengthAdjust="spacingAndGlyphs" textLength="125" x="673.6" y="236.5352">PolicyModelVersionKit</text><line style="stroke: #A80036; stroke-width: 1.5;" x1="611.5" x2="828.5" y1="248" y2="248"/><text fill="#000000" font-family="sans-serif" font-size="11" lengthAdjust="spacingAndGlyphs" textLength="45" x="616.5" y="262.6348">id:String</text><text fill="#000000" font-family="sans-serif" font-size="11" lengthAdjust="spacingAndGlyphs" textLength="74" x="616.5" y="275.5898">modelVersion</text><text fill="#000000" font-family="sans-serif" font-size="11" lengthAdjust="spacingAndGlyphs" textLength="49" x="616.5" y="288.5449">serializer</text><text fill="#000000" font-family="sans-serif" font-size="11" lengthAdjust="spacingAndGlyphs" textLength="207" x="616.5" y="301.5">loadMessages: Seq[ValidationMessage]</text><line style="stroke: #A80036; stroke-width: 1.5;" x1="611.5" x2="828.5" y1="307.8203" y2="307.8203"/><!--class PolicyModel--><rect fill="#FEFECE" filter="url(#f5ex98ep546f7)" height="48" id="PolicyModel" style="stroke: #A80036; stroke-width: 1.5;" width="99" x="471.5" y="536"/><ellipse cx="486.5" cy="552" fill="#ADD1B2" rx="11" ry="11" style="stroke: #A80036; stroke-width: 1.0;"/><path d="M489.4731,557.6431 Q488.8921,557.9419 488.2529,558.0913 Q487.6138,558.2407 486.9082,558.2407 Q484.4014,558.2407 483.0815,556.5889 Q481.7617,554.937 481.7617,551.8159 Q481.7617,548.6865 483.0815,547.0347 Q484.4014,545.3828 486.9082,545.3828 Q487.6138,545.3828 488.2612,545.5322 Q488.9087,545.6816 489.4731,545.9805 L489.4731,548.7031 Q488.8423,548.1221 488.2488,547.8523 Q487.6553,547.5825 487.0244,547.5825 Q485.6797,547.5825 484.9949,548.6492 Q484.3101,549.7158 484.3101,551.8159 Q484.3101,553.9077 484.9949,554.9744 Q485.6797,556.041 487.0244,556.041 Q487.6553,556.041 488.2488,555.7712 Q488.8423,555.5015 489.4731,554.9204 Z "/><text fill="#000000" font-family="sans-serif" font-size="12" lengthAdjust="spacingAndGlyphs" textLength="67" x="500.5" y="556.5352">PolicyModel</text><line style="stroke: #A80036; stroke-width: 1.5;" x1="472.5" x2="569.5" y1="568" y2="568"/><line style="stroke: #A80036; stroke-width: 1.5;" x1="472.5" x2="569.5" y1="576" y2="576"/><!--class ValidationMessage--><rect fill="#FEFECE" filter="url(#f5ex98ep546f7)" height="48" id="ValidationMessage" style="stroke: #A80036; stroke-width: 1.5;" width="139" x="605.5" y="536"/><ellipse cx="620.5" cy="552" fill="#ADD1B2" rx="11" ry="11" style="stroke: #A80036; stroke-width: 1.0;"/><path d="M623.4731,557.6431 Q622.8921,557.9419 622.2529,558.0913 Q621.6138,558.2407 620.9082,558.2407 Q618.4014,558.2407 617.0815,556.5889 Q615.7617,554.937 615.7617,551.8159 Q615.7617,548.6865 617.0815,547.0347 Q618.4014,545.3828 620.9082,545.3828 Q621.6138,545.3828 622.2612,545.5322 Q622.9087,545.6816 623.4731,545.9805 L623.4731,548.7031 Q622.8423,548.1221 622.2488,547.8523 Q621.6553,547.5825 621.0244,547.5825 Q619.6797,547.5825 618.9949,548.6492 Q618.3101,549.7158 618.3101,551.8159 Q618.3101,553.9077 618.9949,554.9744 Q619.6797,556.041 621.0244,556.041 Q621.6553,556.041 622.2488,555.7712 Q622.8423,555.5015 623.4731,554.9204 Z "/><text fill="#000000" font-family="sans-serif" font-size="12" lengthAdjust="spacingAndGlyphs" textLength="107" x="634.5" y="556.5352">ValidationMessage</text><line style="stroke: #A80036; stroke-width: 1.5;" x1="606.5" x2="743.5" y1="568" y2="568"/><line style="stroke: #A80036; stroke-width: 1.5;" x1="606.5" x2="743.5" y1="576" y2="576"/><!--link VersionedPolicyModel to PolicyModelVersion--><path d="M482.3833,316.095 C483.6696,330.7955 485.0936,347.0697 486.4428,362.4894 " fill="none" id="VersionedPolicyModel-PolicyModelVersion" style="stroke: #A80036; stroke-width: 1.0;"/><polygon fill="#A80036" points="487.6039,375.7592,490.8041,366.4448,487.168,370.7782,482.8345,367.1422,487.6039,375.7592" style="stroke: #A80036; stroke-width: 1.0;"/><line style="stroke: #A80036; stroke-width: 1.0;" x1="487.168" x2="486.4707" y1="370.7782" y2="362.8087"/><polygon fill="#A80036" points="481.2471,303.1094,477.7853,309.4352,482.2931,315.0637,485.7549,308.7379,481.2471,303.1094" style="stroke: #A80036; stroke-width: 1.0;"/><text fill="#000000" font-family="sans-serif" font-size="13" lengthAdjust="spacingAndGlyphs" textLength="8" x="473.1177" y="323.3794">1</text><text fill="#000000" font-family="sans-serif" font-size="13" lengthAdjust="spacingAndGlyphs" textLength="22" x="463.4388" y="365.2422">0..*</text><!--link VersionComment to PolicyModelVersion--><path d="M292.376,322.2992 C322.1099,337.7454 354.3381,354.4873 384.0481,369.9211 " fill="none" id="VersionComment-PolicyModelVersion" style="stroke: #A80036; stroke-width: 1.0;"/><polygon fill="#A80036" points="395.7347,375.9921,392.2543,369.6765,385.0859,370.4601,388.5663,376.7757,395.7347,375.9921" style="stroke: #A80036; stroke-width: 1.0;"/><polygon fill="#A80036" points="280.6081,316.186,284.0885,322.5016,291.2569,321.718,287.7765,315.4024,280.6081,316.186" style="stroke: #A80036; stroke-width: 1.0;"/><text fill="#000000" font-family="sans-serif" font-size="13" lengthAdjust="spacingAndGlyphs" textLength="22" x="270.1117" y="336.5389">0..*</text><text fill="#000000" font-family="sans-serif" font-size="13" lengthAdjust="spacingAndGlyphs" textLength="8" x="373.0082" y="365.15">1</text><!--link PolicyModelVersionKit to PolicyModelVersion--><path d="M637.8091,323.6778 C617.0338,338.257 594.7265,353.9112 573.9626,368.4824 " fill="none" id="PolicyModelVersionKit-PolicyModelVersion" style="stroke: #A80036; stroke-width: 1.0;"/><polygon fill="#A80036" points="563.2613,375.9921,572.926,374.0964,567.3541,373.1199,568.3306,367.548,563.2613,375.9921" style="stroke: #A80036; stroke-width: 1.0;"/><line style="stroke: #A80036; stroke-width: 1.0;" x1="567.3541" x2="573.9026" y1="373.1199" y2="368.5245"/><polygon fill="#A80036" points="648.4849,316.186,641.2759,316.3583,638.6622,323.0791,645.8713,322.9068,648.4849,316.186" style="stroke: #A80036; stroke-width: 1.0;"/><text fill="#000000" font-family="sans-serif" font-size="13" lengthAdjust="spacingAndGlyphs" textLength="8" x="565.1403" y="365.15">1</text><!--link PolicyModelStore to VersionedPolicyModel--><path d="M478,169.4949 C478,184.9126 478,200.9529 478,215.4268 " fill="none" id="PolicyModelStore-VersionedPolicyModel" style="stroke: #A80036; stroke-width: 1.0;"/><polygon fill="#A80036" points="478,228.7524,482,219.7524,478,223.7524,474,219.7524,478,228.7524" style="stroke: #A80036; stroke-width: 1.0;"/><line style="stroke: #A80036; stroke-width: 1.0;" x1="478" x2="478.0001" y1="223.7524" y2="215.7524"/><polygon fill="#A80036" points="478,156.3342,474,162.3342,478,168.3342,482,162.3342,478,156.3342" style="stroke: #A80036; stroke-width: 1.0;"/><text fill="#000000" font-family="sans-serif" font-size="13" lengthAdjust="spacingAndGlyphs" textLength="22" x="454.0406" y="218.3858">0..*</text><!--link PolicyModelVersion to PolicyModel--><path d="M505.7147,489.3712 C508.1976,500.8443 510.7114,512.4597 512.9636,522.8665 " fill="none" id="PolicyModelVersion-PolicyModel" style="stroke: #A80036; stroke-width: 1.0;"/><polygon fill="#A80036" points="515.7491,535.7373,517.7548,526.0948,514.6915,530.8504,509.9359,527.7871,515.7491,535.7373" style="stroke: #A80036; stroke-width: 1.0;"/><line style="stroke: #A80036; stroke-width: 1.0;" x1="514.6915" x2="512.9993" y1="530.8504" y2="523.0314"/><polygon fill="#A80036" points="502.881,476.2779,500.2407,482.9882,505.4193,488.0064,508.0597,481.296,502.881,476.2779" style="stroke: #A80036; stroke-width: 1.0;"/><text fill="#000000" font-family="sans-serif" font-size="13" lengthAdjust="spacingAndGlyphs" textLength="8" x="505.3786" y="525.2063">1</text><!--link PolicyModelVersionKit to ValidationMessage--><path d="M710.3427,329.0945 C701.3042,388.1461 688.1087,474.3566 680.6624,523.0058 " fill="none" id="PolicyModelVersionKit-ValidationMessage" style="stroke: #A80036; stroke-width: 1.0;"/><polygon fill="#A80036" points="678.6788,535.9651,683.9945,527.674,679.4353,531.0227,676.0866,526.4635,678.6788,535.9651" style="stroke: #A80036; stroke-width: 1.0;"/><line style="stroke: #A80036; stroke-width: 1.0;" x1="679.4353" x2="680.6458" y1="531.0227" y2="523.1148"/><polygon fill="#A80036" points="712.3154,316.2063,707.4537,321.532,710.4998,328.0682,715.3616,322.7424,712.3154,316.2063" style="stroke: #A80036; stroke-width: 1.0;"/><text fill="#000000" font-family="sans-serif" font-size="13" lengthAdjust="spacingAndGlyphs" textLength="8" x="702.7453" y="336.5619">1</text><text fill="#000000" font-family="sans-serif" font-size="13" lengthAdjust="spacingAndGlyphs" textLength="22" x="682.6237" y="525.1002">0..*</text><!--
@startuml

package policymodels.server {

  class PolicyModelStore {
    models: Map[id, VersionedPolicyModel]
    loadAll()
    reload(id)
    C/R/U/D(VersionedPolicyModel)
    C/R/U/D(vpmId, PolicyModelVersion)
  }

  class VersionedPolicyModel <DB> {
    id:String
    versions: Seq[PolicyModelVersion]
  }

  class PolicyModelVersion <DB> {
    id
    policyModel:PolicyModel
    publishStatus: {None, ByLink, Public}
    isOpenForComments: {None, LoggedIn, Public}
  }

  class VersionComment <DB> {
    comment:String
    commenter: String
    targetType: {DecisionGraphMetadata, Question, TagSpace}
    targetId: String
  }

  class PolicyModelVersionKit {
    id:String
    modelVersion
    serializer
    loadMessages: Seq[ValidationMessage]
  }

  VersionedPolicyModel "1" *- -> "0..*" PolicyModelVersion
  VersionComment "0..*" *- -* "1" PolicyModelVersion
  PolicyModelVersionKit *- -> "1" PolicyModelVersion
  PolicyModelStore *- -> "0..*" VersionedPolicyModel
}

package policymodels.datatags {
  class PolicyModel
  class ValidationMessage
}

PolicyModelVersion  *- -> "1" PolicyModel
PolicyModelVersionKit "1" *- -> "0..*" ValidationMessage

@enduml

PlantUML version 1.2017.13(Wed May 10 19:52:33 IDT 2017)
(GPL source distribution)
Java Runtime: Java(TM) SE Runtime Environment
JVM: Java HotSpot(TM) 64-Bit Server VM
Java Version: 1.8.0_111-b14
Operating System: Mac OS X
OS Version: 10.12.5
Default Encoding: UTF-8
Language: en
Country: US
--></g></svg>