<?xml version="1.0" encoding="UTF-8" standalone="no"?>
<svg
   xmlns:svg="http://www.w3.org/2000/svg"
   xmlns="http://www.w3.org/2000/svg"
   width="76.414406mm"
   height="44.645695mm"
   viewBox="0 0 76.414406 44.645695"
   version="1.1">
  <path d="m 57.266593,26.913999 a 4.8462129,4.8462129 0 0 1 -4.846205,4.846213 4.8462129,4.8462129 0 0 1 -4.846214,-4.846213 4.8462129,4.8462129 0 0 1 4.846214,-4.846213 4.8462129,4.8462129 0 0 1 4.846205,4.846213 z M 0.1322915,9.3145925 H 49.104549 L 60.582413,19.792465 V 33.800721 L 49.869738,44.513403 H 0.1322915 Z"
     style="fill:#75140c;fill-opacity:1;fill-rule:evenodd;stroke:#000000;stroke-width:0.264583;stroke-opacity:1"/>
  <path d="m 65.116473,22.322853 a 4.8462128,4.8462128 0 0 1 -4.8462,4.846213 4.8462128,4.8462128 0 0 1 -4.84625,-4.846213 4.8462128,4.8462128 0 0 1 4.84625,-4.846213 4.8462128,4.8462128 0 0 1 4.8462,4.846213 z M 7.9821255,4.7234465 H 56.954413 L 68.432293,15.201319 V 29.209575 L 57.719613,39.922258 H 7.9821255 Z"
     style="fill:#e79137;fill-opacity:1;fill-rule:evenodd;stroke:#000000;stroke-width:0.264583;stroke-opacity:1"/>
  <path style="fill:#faec56;fill-opacity:1;fill-rule:evenodd;stroke:#000000;stroke-width:0.264583;stroke-opacity:1"
     d="m 72.966293,17.731699 a 4.8462128,4.8462128 0 0 1 -4.8462,4.846213 4.8462128,4.8462128 0 0 1 -4.84625,-4.846213 4.8462128,4.8462128 0 0 1 4.84625,-4.846213 4.8462128,4.8462128 0 0 1 4.8462,4.846213 z M 15.831963,0.1322915 h 48.97227 l 11.47788,10.4778735 v 14.008256 l -10.71268,10.712683 h -49.73747 z"/>
  <g transform="matrix(1.27286,0,0,1.3971871,-169.40654,-30.234837)"
     style="fill:#000000;fill-opacity:1;stroke:none;stroke-width:0.334965"
     aria-label="Policy">
    <path d="m 146.52093,32.925133 h 1.42025 v -3.523832 c 0.13398,0.0134 0.25457,0.0134 0.40195,0.0134 0.76372,0 1.63463,-0.308168 2.17058,-0.937902 0.41535,-0.48235 0.66993,-1.098685 0.66993,-2.00979 0,-0.777119 -0.24118,-1.473846 -0.72353,-1.929399 -0.53594,-0.509146 -1.31306,-0.683328 -2.26436,-0.683328 -0.62973,0 -1.21927,0.06699 -1.67482,0.174182 z m 1.42025,-7.838181 c 0.12058,-0.0402 0.29477,-0.06699 0.49574,-0.06699 0.9647,0 1.31307,0.710126 1.31307,1.554238 0,1.031692 -0.52255,1.674824 -1.46045,1.674824 -0.14738,0 -0.24117,0 -0.34836,-0.0268 z" />
    <path d="m 153.94647,33.032322 c 0.9781,0 2.34476,-0.750322 2.34476,-3.389846 0,-2.157175 -0.93791,-3.34965 -2.30456,-3.34965 -1.21928,0 -2.38495,1.018294 -2.38495,3.389846 0,2.19737 0.9513,3.34965 2.33135,3.34965 z m 0.0268,-1.098686 c -0.75032,0 -0.9379,-1.179076 -0.9379,-2.277762 0,-0.9513 0.14738,-2.264363 0.9245,-2.264363 0.73692,0 0.89771,1.313063 0.89771,2.264363 0,0.991497 -0.16079,2.277762 -0.87091,2.277762 z" />
    <path d="m 157.35181,32.925133 h 1.43365 v -9.271831 h -1.43365 z" />
    <path d="m 161.61173,32.925133 v -6.525118 h -1.43365 v 6.525118 z m -0.73693,-7.396027 c 0.45556,0 0.77712,-0.334965 0.77712,-0.830713 0,-0.509147 -0.32156,-0.830714 -0.77712,-0.830714 -0.41535,0 -0.76372,0.321567 -0.76372,0.830714 0,0.495748 0.33497,0.830713 0.75032,0.830713 z" />
    <path d="m 166.20849,31.679063 c -0.20098,0.09379 -0.42875,0.147385 -0.69672,0.147385 -0.87091,0 -1.40686,-0.803916 -1.40686,-2.143776 0,-1.205874 0.48235,-2.197371 1.40686,-2.197371 0.32156,0 0.54934,0.09379 0.69672,0.147385 l 0.21438,-1.138881 c -0.17418,-0.09379 -0.54934,-0.18758 -0.9379,-0.18758 -1.72842,0 -2.81371,1.447048 -2.81371,3.403244 0,2.143776 1.03169,3.296055 2.58593,3.296055 0.48235,0 0.89771,-0.107188 1.09869,-0.214377 z" />
    <path d="m 166.87758,26.400015 1.72842,6.02937 c 0.0268,0.08039 0.0402,0.160783 0.0402,0.241174 0,0.09379 -0.0268,0.174182 -0.0804,0.308168 -0.12059,0.294769 -0.30817,0.643133 -0.56274,0.911105 -0.28137,0.294769 -0.58954,0.535944 -0.89771,0.66993 l 0.46895,1.232671 c 0.25457,-0.09379 0.83071,-0.401958 1.33986,-1.018294 0.73692,-0.897706 1.17908,-2.304559 1.52744,-3.711412 l 1.21927,-4.662712 h -1.40685 l -0.64313,3.564027 c -0.0804,0.415357 -0.16078,0.844112 -0.21438,1.192476 h -0.0268 c -0.067,-0.375161 -0.13398,-0.763721 -0.22777,-1.205874 l -0.73693,-3.550629 z" />
  </g>
  <g style="fill:#000000;fill-opacity:1;stroke:none;stroke-width:0.368268"
     transform="matrix(1.2695623,0,0,1.4008162,-168.87737,-30.234837)"
     aria-label="Models">
    <path d="m 153.51193,44.611069 h 2.0181 l -0.61869,-9.928492 h -2.37164 l -0.63342,3.181831 c -0.23569,1.222648 -0.45665,2.415835 -0.58923,3.505907 h -0.0295 c -0.16204,-1.119533 -0.41246,-2.268528 -0.66288,-3.505907 l -0.63342,-3.181831 h -2.38638 l -0.76599,9.928492 h 1.92972 l 0.16204,-3.122909 c 0.0442,-0.795457 0.11784,-1.988644 0.16204,-3.034524 h 0.0295 c 0.13257,1.04588 0.38299,2.283259 0.51557,2.887217 l 0.67761,3.063986 h 1.64984 l 0.70708,-3.063986 c 0.13257,-0.603958 0.39772,-1.841337 0.55976,-2.887217 h 0.0295 c -0.0147,1.04588 0.0442,2.239067 0.0884,3.034524 z" />
    <path d="m 159.37981,44.728914 c 1.07534,0 2.90195,-0.662881 2.90195,-3.771059 0,-2.180143 -1.01642,-3.712136 -2.90195,-3.712136 -1.51726,0 -2.96087,1.193187 -2.96087,3.771059 0,2.268528 1.03115,3.712136 2.94614,3.712136 z m 0.0147,-1.708761 c -0.53031,0 -0.72181,-0.795458 -0.72181,-2.047567 0,-0.957496 0.13258,-2.018106 0.70708,-2.018106 0.50084,0 0.64815,1.06061 0.64815,2.018106 0,1.031149 -0.14731,2.047567 -0.61869,2.047567 z" />
    <path d="m 166.65931,34.417425 v 3.505906 h -0.0295 c -0.1473,-0.324075 -0.48611,-0.677612 -1.17845,-0.677612 -1.26684,0 -2.38638,1.252109 -2.38638,3.756328 0,1.856068 0.63342,3.726867 2.31272,3.726867 0.61869,0 1.22265,-0.382998 1.50254,-0.898572 h 0.0295 l 0.11784,0.780727 h 1.95919 c -0.0295,-0.765997 -0.0589,-1.546724 -0.0589,-2.31272 v -7.880924 z m 0,7.645233 c 0,0.191499 -0.0295,0.338806 -0.0737,0.441921 -0.10311,0.265152 -0.27988,0.368267 -0.48611,0.368267 -0.41246,0 -0.78073,-0.500844 -0.78073,-1.811876 0,-1.06061 0.22096,-1.90026 0.78073,-1.90026 0.32407,0 0.45665,0.294614 0.5303,0.603959 0.0295,0.132576 0.0295,0.279883 0.0295,0.397728 z" />
    <path d="m 175.62662,41.930081 c 0.0442,-0.22096 0.0736,-0.545035 0.0736,-1.163725 0,-2.430565 -1.04588,-3.520637 -2.63679,-3.520637 -1.70877,0 -3.09345,1.443609 -3.09345,3.918366 0,2.283258 1.16372,3.535368 3.24075,3.535368 0.79546,0 1.62038,-0.132576 2.15068,-0.324075 l -0.27988,-1.620377 c -0.383,0.117845 -0.88384,0.235691 -1.45834,0.235691 -0.86911,0 -1.42888,-0.397729 -1.45834,-1.060611 z m -3.46172,-1.576184 c 0,-0.61869 0.20623,-1.47307 0.78073,-1.47307 0.58923,0 0.70707,0.765996 0.70707,1.47307 z" />
    <path d="m 176.72198,44.611069 h 2.28326 V 34.417425 h -2.28326 z" />
    <path d="m 179.86376,44.286993 c 0.33881,0.250422 1.10481,0.41246 1.73823,0.41246 1.6351,0 2.72518,-0.83965 2.72518,-2.342181 0,-0.736535 -0.27989,-1.531993 -1.44361,-2.165413 -0.66288,-0.368268 -0.82492,-0.515575 -0.82492,-0.765997 0,-0.265152 0.1915,-0.486113 0.63342,-0.486113 0.39773,0 0.75126,0.132577 1.03115,0.279884 l 0.35353,-1.649839 c -0.42719,-0.191499 -0.92803,-0.324075 -1.54672,-0.324075 -1.59091,0 -2.54841,1.06061 -2.54841,2.415835 0,0.589228 0.1915,1.399416 1.47307,2.091759 0.58923,0.324075 0.81019,0.486113 0.81019,0.795458 0,0.324075 -0.23569,0.471382 -0.66288,0.471382 -0.50085,0 -1.07534,-0.20623 -1.36996,-0.382998 z" />
  </g>
</svg>
